<mxfile host="app.diagrams.net" modified="2024-03-05T02:55:00.730Z" agent="Mozilla/5.0 (Windows NT 10.0; Win64; x64) AppleWebKit/537.36 (KHTML, like Gecko) Chrome/122.0.0.0 Safari/537.36 Edg/122.0.0.0" etag="gVJTyR_46E9Xce3HffZ_" version="24.0.1" type="github">
  <diagram name="第 1 页" id="YZycSGmpW5G5g1q2AWNo">
    <mxGraphModel dx="4816" dy="2389" grid="1" gridSize="10" guides="1" tooltips="1" connect="1" arrows="1" fold="1" page="1" pageScale="1" pageWidth="827" pageHeight="1169" math="0" shadow="0">
      <root>
        <mxCell id="0" />
        <mxCell id="1" parent="0" />
        <mxCell id="LfCRL5i9iXzUdqfVExbe-244" value="" style="group" vertex="1" connectable="0" parent="1">
          <mxGeometry x="-510" y="30" width="1390" height="1500" as="geometry" />
        </mxCell>
        <mxCell id="LfCRL5i9iXzUdqfVExbe-243" value="" style="rounded=0;whiteSpace=wrap;html=1;fillColor=#ffe6cc;strokeColor=#d79b00;" vertex="1" parent="LfCRL5i9iXzUdqfVExbe-244">
          <mxGeometry y="1070" width="1390" height="430" as="geometry" />
        </mxCell>
        <mxCell id="LfCRL5i9iXzUdqfVExbe-242" value="" style="rounded=0;whiteSpace=wrap;html=1;fillColor=#fff2cc;strokeColor=#d6b656;" vertex="1" parent="LfCRL5i9iXzUdqfVExbe-244">
          <mxGeometry y="750" width="1390" height="320" as="geometry" />
        </mxCell>
        <mxCell id="LfCRL5i9iXzUdqfVExbe-241" value="" style="rounded=0;whiteSpace=wrap;html=1;fillColor=#dae8fc;strokeColor=#6c8ebf;" vertex="1" parent="LfCRL5i9iXzUdqfVExbe-244">
          <mxGeometry y="470" width="1390" height="280" as="geometry" />
        </mxCell>
        <mxCell id="LfCRL5i9iXzUdqfVExbe-240" value="" style="rounded=0;whiteSpace=wrap;html=1;fillColor=#d5e8d4;strokeColor=#82b366;" vertex="1" parent="LfCRL5i9iXzUdqfVExbe-244">
          <mxGeometry y="80" width="1390" height="400" as="geometry" />
        </mxCell>
        <mxCell id="LfCRL5i9iXzUdqfVExbe-239" value="" style="rounded=0;whiteSpace=wrap;html=1;fillColor=#e1d5e7;strokeColor=#9673a6;" vertex="1" parent="LfCRL5i9iXzUdqfVExbe-244">
          <mxGeometry width="1390" height="80" as="geometry" />
        </mxCell>
        <mxCell id="LfCRL5i9iXzUdqfVExbe-30" value="" style="html=1;points=[[0,0,0,0,5],[0,1,0,0,-5],[1,0,0,0,5],[1,1,0,0,-5]];perimeter=orthogonalPerimeter;outlineConnect=0;targetShapes=umlLifeline;portConstraint=eastwest;newEdgeStyle={&quot;curved&quot;:0,&quot;rounded&quot;:0};movable=0;resizable=0;rotatable=0;deletable=0;editable=0;locked=1;connectable=0;" vertex="1" parent="1">
          <mxGeometry x="-225" y="150" width="10" height="110" as="geometry" />
        </mxCell>
        <mxCell id="LfCRL5i9iXzUdqfVExbe-31" value="【场景1】新业务中台登录" style="html=1;verticalAlign=bottom;endArrow=block;curved=0;rounded=0;entryX=0;entryY=0;entryDx=0;entryDy=5;movable=0;resizable=0;rotatable=0;deletable=0;editable=0;locked=1;connectable=0;" edge="1" target="LfCRL5i9iXzUdqfVExbe-30" parent="1" source="LfCRL5i9iXzUdqfVExbe-177">
          <mxGeometry relative="1" as="geometry">
            <mxPoint x="-400" y="155" as="sourcePoint" />
          </mxGeometry>
        </mxCell>
        <mxCell id="LfCRL5i9iXzUdqfVExbe-75" value="" style="edgeStyle=orthogonalEdgeStyle;rounded=0;orthogonalLoop=1;jettySize=auto;html=1;curved=0;movable=0;resizable=0;rotatable=0;deletable=0;editable=0;locked=1;connectable=0;" edge="1" parent="1">
          <mxGeometry relative="1" as="geometry">
            <mxPoint x="342.5" y="190" as="sourcePoint" />
            <mxPoint x="167.5" y="190" as="targetPoint" />
          </mxGeometry>
        </mxCell>
        <mxCell id="LfCRL5i9iXzUdqfVExbe-78" value="4、返回Token+用户信息" style="edgeLabel;html=1;align=center;verticalAlign=middle;resizable=0;points=[];movable=0;rotatable=0;deletable=0;editable=0;locked=1;connectable=0;" vertex="1" connectable="0" parent="LfCRL5i9iXzUdqfVExbe-75">
          <mxGeometry x="0.2124" y="-2" relative="1" as="geometry">
            <mxPoint as="offset" />
          </mxGeometry>
        </mxCell>
        <mxCell id="LfCRL5i9iXzUdqfVExbe-35" value="" style="html=1;points=[[0,0,0,0,5],[0,1,0,0,-5],[1,0,0,0,5],[1,1,0,0,-5]];perimeter=orthogonalPerimeter;outlineConnect=0;targetShapes=umlLifeline;portConstraint=eastwest;newEdgeStyle={&quot;curved&quot;:0,&quot;rounded&quot;:0};movable=0;resizable=0;rotatable=0;deletable=0;editable=0;locked=1;connectable=0;" vertex="1" parent="1">
          <mxGeometry x="340" y="160" width="10" height="40" as="geometry" />
        </mxCell>
        <mxCell id="LfCRL5i9iXzUdqfVExbe-40" value="3、登录校验" style="html=1;align=left;spacingLeft=2;endArrow=block;rounded=0;edgeStyle=orthogonalEdgeStyle;curved=0;rounded=0;movable=0;resizable=0;rotatable=0;deletable=0;editable=0;locked=1;connectable=0;" edge="1" parent="1">
          <mxGeometry x="-0.0025" relative="1" as="geometry">
            <mxPoint x="350" y="165" as="sourcePoint" />
            <Array as="points">
              <mxPoint x="372.5" y="165" />
              <mxPoint x="372.5" y="190" />
              <mxPoint x="352.5" y="190" />
            </Array>
            <mxPoint x="352.5" y="190" as="targetPoint" />
            <mxPoint as="offset" />
          </mxGeometry>
        </mxCell>
        <mxCell id="LfCRL5i9iXzUdqfVExbe-49" value="6、前端将Token&lt;br&gt;存储到Cookies中" style="html=1;align=left;spacingLeft=2;endArrow=block;rounded=0;edgeStyle=orthogonalEdgeStyle;curved=0;rounded=0;movable=0;resizable=0;rotatable=0;deletable=0;editable=0;locked=1;connectable=0;" edge="1" parent="1">
          <mxGeometry x="-0.005" relative="1" as="geometry">
            <mxPoint x="-215" y="210" as="sourcePoint" />
            <Array as="points">
              <mxPoint x="-185" y="240" />
            </Array>
            <mxPoint x="-210" y="240" as="targetPoint" />
            <mxPoint as="offset" />
          </mxGeometry>
        </mxCell>
        <mxCell id="LfCRL5i9iXzUdqfVExbe-81" value="" style="edgeStyle=orthogonalEdgeStyle;rounded=0;orthogonalLoop=1;jettySize=auto;html=1;curved=0;movable=0;resizable=0;rotatable=0;deletable=0;editable=0;locked=1;connectable=0;" edge="1" parent="1">
          <mxGeometry relative="1" as="geometry">
            <mxPoint x="-215" y="326" as="sourcePoint" />
            <mxPoint x="155" y="326" as="targetPoint" />
            <Array as="points">
              <mxPoint x="-90" y="326" />
              <mxPoint x="-90" y="326" />
            </Array>
          </mxGeometry>
        </mxCell>
        <mxCell id="LfCRL5i9iXzUdqfVExbe-82" value="8、请求用户目录信息" style="edgeLabel;html=1;align=center;verticalAlign=middle;resizable=0;points=[];movable=0;rotatable=0;deletable=0;editable=0;locked=1;connectable=0;" vertex="1" connectable="0" parent="LfCRL5i9iXzUdqfVExbe-81">
          <mxGeometry x="-0.182" y="1" relative="1" as="geometry">
            <mxPoint as="offset" />
          </mxGeometry>
        </mxCell>
        <mxCell id="LfCRL5i9iXzUdqfVExbe-102" value="" style="edgeStyle=orthogonalEdgeStyle;rounded=0;orthogonalLoop=1;jettySize=auto;html=1;curved=0;movable=0;resizable=0;rotatable=0;deletable=0;editable=0;locked=1;connectable=0;" edge="1" parent="1" target="LfCRL5i9iXzUdqfVExbe-177">
          <mxGeometry relative="1" as="geometry">
            <mxPoint x="-225" y="474.0344827586209" as="sourcePoint" />
            <mxPoint x="-340" y="474" as="targetPoint" />
            <Array as="points">
              <mxPoint x="-315" y="475" />
            </Array>
          </mxGeometry>
        </mxCell>
        <mxCell id="LfCRL5i9iXzUdqfVExbe-103" value="登录成功" style="edgeLabel;html=1;align=center;verticalAlign=middle;resizable=0;points=[];movable=0;rotatable=0;deletable=0;editable=0;locked=1;connectable=0;" vertex="1" connectable="0" parent="LfCRL5i9iXzUdqfVExbe-102">
          <mxGeometry x="0.4932" y="-1" relative="1" as="geometry">
            <mxPoint x="44" y="-3" as="offset" />
          </mxGeometry>
        </mxCell>
        <mxCell id="LfCRL5i9iXzUdqfVExbe-58" value="" style="html=1;points=[[0,0,0,0,5],[0,1,0,0,-5],[1,0,0,0,5],[1,1,0,0,-5]];perimeter=orthogonalPerimeter;outlineConnect=0;targetShapes=umlLifeline;portConstraint=eastwest;newEdgeStyle={&quot;curved&quot;:0,&quot;rounded&quot;:0};movable=0;resizable=0;rotatable=0;deletable=0;editable=0;locked=1;connectable=0;" vertex="1" parent="1">
          <mxGeometry x="-225" y="320" width="10" height="170" as="geometry" />
        </mxCell>
        <mxCell id="LfCRL5i9iXzUdqfVExbe-59" value="" style="endArrow=classic;html=1;rounded=0;movable=0;resizable=0;rotatable=0;deletable=0;editable=0;locked=1;connectable=0;" edge="1" parent="1" target="LfCRL5i9iXzUdqfVExbe-58">
          <mxGeometry width="50" height="50" relative="1" as="geometry">
            <mxPoint x="-220" y="260" as="sourcePoint" />
            <mxPoint x="-170" y="210" as="targetPoint" />
          </mxGeometry>
        </mxCell>
        <mxCell id="LfCRL5i9iXzUdqfVExbe-60" value="7、登录成功&lt;br&gt;跳转web首页" style="edgeLabel;html=1;align=center;verticalAlign=middle;resizable=0;points=[];movable=0;rotatable=0;deletable=0;editable=0;locked=1;connectable=0;" vertex="1" connectable="0" parent="LfCRL5i9iXzUdqfVExbe-59">
          <mxGeometry x="-0.1711" y="1" relative="1" as="geometry">
            <mxPoint as="offset" />
          </mxGeometry>
        </mxCell>
        <mxCell id="LfCRL5i9iXzUdqfVExbe-69" value="" style="edgeStyle=orthogonalEdgeStyle;rounded=0;orthogonalLoop=1;jettySize=auto;html=1;curved=0;movable=0;resizable=0;rotatable=0;deletable=0;editable=0;locked=1;connectable=0;" edge="1" parent="1">
          <mxGeometry relative="1" as="geometry">
            <mxPoint x="155" y="197" as="sourcePoint" />
            <mxPoint x="-215" y="197" as="targetPoint" />
          </mxGeometry>
        </mxCell>
        <mxCell id="LfCRL5i9iXzUdqfVExbe-79" value="5、转发响应结果给到前端（返回Token+用户信息）" style="edgeLabel;html=1;align=center;verticalAlign=middle;resizable=0;points=[];movable=0;rotatable=0;deletable=0;editable=0;locked=1;connectable=0;" vertex="1" connectable="0" parent="LfCRL5i9iXzUdqfVExbe-69">
          <mxGeometry x="0.1063" relative="1" as="geometry">
            <mxPoint as="offset" />
          </mxGeometry>
        </mxCell>
        <mxCell id="LfCRL5i9iXzUdqfVExbe-73" value="" style="edgeStyle=orthogonalEdgeStyle;rounded=0;orthogonalLoop=1;jettySize=auto;html=1;curved=0;movable=0;resizable=0;rotatable=0;deletable=0;editable=0;locked=1;connectable=0;" edge="1" parent="1">
          <mxGeometry relative="1" as="geometry">
            <mxPoint x="164.5" y="164.02857142857147" as="sourcePoint" />
            <mxPoint x="339.5" y="164" as="targetPoint" />
          </mxGeometry>
        </mxCell>
        <mxCell id="LfCRL5i9iXzUdqfVExbe-77" value="2、白名单URL放行转发" style="edgeLabel;html=1;align=center;verticalAlign=middle;resizable=0;points=[];movable=0;rotatable=0;deletable=0;editable=0;locked=1;connectable=0;" vertex="1" connectable="0" parent="LfCRL5i9iXzUdqfVExbe-73">
          <mxGeometry x="-0.1476" y="-1" relative="1" as="geometry">
            <mxPoint as="offset" />
          </mxGeometry>
        </mxCell>
        <mxCell id="LfCRL5i9iXzUdqfVExbe-66" value="" style="html=1;points=[[0,0,0,0,5],[0,1,0,0,-5],[1,0,0,0,5],[1,1,0,0,-5]];perimeter=orthogonalPerimeter;outlineConnect=0;targetShapes=umlLifeline;portConstraint=eastwest;newEdgeStyle={&quot;curved&quot;:0,&quot;rounded&quot;:0};movable=0;resizable=0;rotatable=0;deletable=0;editable=0;locked=1;connectable=0;" vertex="1" parent="1">
          <mxGeometry x="155" y="150" width="10" height="60" as="geometry" />
        </mxCell>
        <mxCell id="LfCRL5i9iXzUdqfVExbe-67" value="" style="edgeStyle=orthogonalEdgeStyle;rounded=0;orthogonalLoop=1;jettySize=auto;html=1;curved=0;movable=0;resizable=0;rotatable=0;deletable=0;editable=0;locked=1;connectable=0;" edge="1" parent="1" source="LfCRL5i9iXzUdqfVExbe-30" target="LfCRL5i9iXzUdqfVExbe-66">
          <mxGeometry relative="1" as="geometry">
            <Array as="points">
              <mxPoint x="-90" y="160" />
              <mxPoint x="-90" y="160" />
            </Array>
          </mxGeometry>
        </mxCell>
        <mxCell id="LfCRL5i9iXzUdqfVExbe-76" value="2、传入账号密码登录" style="edgeLabel;html=1;align=center;verticalAlign=middle;resizable=0;points=[];movable=0;rotatable=0;deletable=0;editable=0;locked=1;connectable=0;" vertex="1" connectable="0" parent="LfCRL5i9iXzUdqfVExbe-67">
          <mxGeometry x="-0.0896" y="1" relative="1" as="geometry">
            <mxPoint as="offset" />
          </mxGeometry>
        </mxCell>
        <mxCell id="LfCRL5i9iXzUdqfVExbe-92" value="" style="edgeStyle=orthogonalEdgeStyle;rounded=0;orthogonalLoop=1;jettySize=auto;html=1;curved=0;movable=0;resizable=0;rotatable=0;deletable=0;editable=0;locked=1;connectable=0;" edge="1" parent="1">
          <mxGeometry relative="1" as="geometry">
            <mxPoint x="165" y="412" as="sourcePoint" />
            <mxPoint x="537.5" y="412" as="targetPoint" />
            <Array as="points">
              <mxPoint x="450" y="412" />
              <mxPoint x="450" y="412" />
            </Array>
          </mxGeometry>
        </mxCell>
        <mxCell id="LfCRL5i9iXzUdqfVExbe-93" value="13、转发请求" style="edgeLabel;html=1;align=center;verticalAlign=middle;resizable=0;points=[];movable=0;rotatable=0;deletable=0;editable=0;locked=1;connectable=0;" vertex="1" connectable="0" parent="LfCRL5i9iXzUdqfVExbe-92">
          <mxGeometry x="-0.0206" y="-2" relative="1" as="geometry">
            <mxPoint as="offset" />
          </mxGeometry>
        </mxCell>
        <mxCell id="LfCRL5i9iXzUdqfVExbe-99" value="" style="edgeStyle=orthogonalEdgeStyle;rounded=0;orthogonalLoop=1;jettySize=auto;html=1;curved=0;movable=0;resizable=0;rotatable=0;deletable=0;editable=0;locked=1;connectable=0;" edge="1" parent="1" source="LfCRL5i9iXzUdqfVExbe-80">
          <mxGeometry relative="1" as="geometry">
            <mxPoint x="-215" y="460" as="targetPoint" />
            <Array as="points">
              <mxPoint x="-10" y="460" />
              <mxPoint x="-10" y="460" />
            </Array>
          </mxGeometry>
        </mxCell>
        <mxCell id="LfCRL5i9iXzUdqfVExbe-100" value="16、前端渲染目录" style="edgeLabel;html=1;align=center;verticalAlign=middle;resizable=0;points=[];movable=0;rotatable=0;deletable=0;editable=0;locked=1;connectable=0;" vertex="1" connectable="0" parent="LfCRL5i9iXzUdqfVExbe-99">
          <mxGeometry x="0.2251" y="-3" relative="1" as="geometry">
            <mxPoint as="offset" />
          </mxGeometry>
        </mxCell>
        <mxCell id="LfCRL5i9iXzUdqfVExbe-80" value="" style="html=1;points=[[0,0,0,0,5],[0,1,0,0,-5],[1,0,0,0,5],[1,1,0,0,-5]];perimeter=orthogonalPerimeter;outlineConnect=0;targetShapes=umlLifeline;portConstraint=eastwest;newEdgeStyle={&quot;curved&quot;:0,&quot;rounded&quot;:0};movable=0;resizable=0;rotatable=0;deletable=0;editable=0;locked=1;connectable=0;" vertex="1" parent="1">
          <mxGeometry x="155" y="320" width="10" height="150" as="geometry" />
        </mxCell>
        <mxCell id="LfCRL5i9iXzUdqfVExbe-88" value="" style="edgeStyle=orthogonalEdgeStyle;rounded=0;orthogonalLoop=1;jettySize=auto;html=1;curved=0;movable=0;resizable=0;rotatable=0;deletable=0;editable=0;locked=1;connectable=0;" edge="1" parent="1">
          <mxGeometry relative="1" as="geometry">
            <mxPoint x="344.9999999999998" y="363" as="sourcePoint" />
            <mxPoint x="165" y="363" as="targetPoint" />
          </mxGeometry>
        </mxCell>
        <mxCell id="LfCRL5i9iXzUdqfVExbe-89" value="11、返回用户信息" style="edgeLabel;html=1;align=center;verticalAlign=middle;resizable=0;points=[];movable=0;rotatable=0;deletable=0;editable=0;locked=1;connectable=0;" vertex="1" connectable="0" parent="LfCRL5i9iXzUdqfVExbe-88">
          <mxGeometry x="0.1862" relative="1" as="geometry">
            <mxPoint as="offset" />
          </mxGeometry>
        </mxCell>
        <mxCell id="LfCRL5i9iXzUdqfVExbe-83" value="" style="html=1;points=[[0,0,0,0,5],[0,1,0,0,-5],[1,0,0,0,5],[1,1,0,0,-5]];perimeter=orthogonalPerimeter;outlineConnect=0;targetShapes=umlLifeline;portConstraint=eastwest;newEdgeStyle={&quot;curved&quot;:0,&quot;rounded&quot;:0};movable=0;resizable=0;rotatable=0;deletable=0;editable=0;locked=1;connectable=0;" vertex="1" parent="1">
          <mxGeometry x="345" y="320" width="10" height="60" as="geometry" />
        </mxCell>
        <mxCell id="LfCRL5i9iXzUdqfVExbe-84" value="" style="edgeStyle=orthogonalEdgeStyle;rounded=0;orthogonalLoop=1;jettySize=auto;html=1;curved=0;movable=0;resizable=0;rotatable=0;deletable=0;editable=0;locked=1;connectable=0;" edge="1" parent="1" source="LfCRL5i9iXzUdqfVExbe-80" target="LfCRL5i9iXzUdqfVExbe-83">
          <mxGeometry relative="1" as="geometry">
            <Array as="points">
              <mxPoint x="230" y="330" />
              <mxPoint x="230" y="330" />
            </Array>
          </mxGeometry>
        </mxCell>
        <mxCell id="LfCRL5i9iXzUdqfVExbe-85" value="9、进行Token鉴权" style="edgeLabel;html=1;align=center;verticalAlign=middle;resizable=0;points=[];movable=0;rotatable=0;deletable=0;editable=0;locked=1;connectable=0;" vertex="1" connectable="0" parent="LfCRL5i9iXzUdqfVExbe-84">
          <mxGeometry x="-0.2232" y="2" relative="1" as="geometry">
            <mxPoint as="offset" />
          </mxGeometry>
        </mxCell>
        <mxCell id="LfCRL5i9iXzUdqfVExbe-86" value="&lt;font color=&quot;#3399ff&quot;&gt;&lt;b&gt;10、Token鉴权&lt;/b&gt;&lt;/font&gt;" style="html=1;align=left;spacingLeft=2;endArrow=block;rounded=0;edgeStyle=orthogonalEdgeStyle;curved=0;rounded=0;movable=0;resizable=0;rotatable=0;deletable=0;editable=0;locked=1;connectable=0;" edge="1" parent="1">
          <mxGeometry x="-0.0025" relative="1" as="geometry">
            <mxPoint x="355" y="335" as="sourcePoint" />
            <Array as="points">
              <mxPoint x="377.5" y="335" />
              <mxPoint x="377.5" y="360" />
              <mxPoint x="357.5" y="360" />
            </Array>
            <mxPoint x="357.5" y="360" as="targetPoint" />
            <mxPoint as="offset" />
          </mxGeometry>
        </mxCell>
        <mxCell id="LfCRL5i9iXzUdqfVExbe-90" value="12、将用户信息&lt;br&gt;注入到请求头中" style="html=1;align=left;spacingLeft=2;endArrow=block;rounded=0;edgeStyle=orthogonalEdgeStyle;curved=0;rounded=0;movable=0;resizable=0;rotatable=0;deletable=0;editable=0;locked=1;connectable=0;" edge="1" parent="1">
          <mxGeometry x="-0.0025" relative="1" as="geometry">
            <mxPoint x="165" y="380" as="sourcePoint" />
            <Array as="points">
              <mxPoint x="187.5" y="380" />
              <mxPoint x="187.5" y="405" />
              <mxPoint x="167.5" y="405" />
            </Array>
            <mxPoint x="167.5" y="405" as="targetPoint" />
            <mxPoint as="offset" />
          </mxGeometry>
        </mxCell>
        <mxCell id="LfCRL5i9iXzUdqfVExbe-96" value="" style="edgeStyle=orthogonalEdgeStyle;rounded=0;orthogonalLoop=1;jettySize=auto;html=1;curved=0;movable=0;resizable=0;rotatable=0;deletable=0;editable=0;locked=1;connectable=0;" edge="1" parent="1" source="LfCRL5i9iXzUdqfVExbe-91">
          <mxGeometry relative="1" as="geometry">
            <mxPoint x="165" y="450" as="targetPoint" />
            <Array as="points">
              <mxPoint x="470" y="450" />
              <mxPoint x="470" y="450" />
            </Array>
          </mxGeometry>
        </mxCell>
        <mxCell id="LfCRL5i9iXzUdqfVExbe-97" value="15、返回用户目录信息" style="edgeLabel;html=1;align=center;verticalAlign=middle;resizable=0;points=[];movable=0;rotatable=0;deletable=0;editable=0;locked=1;connectable=0;" vertex="1" connectable="0" parent="LfCRL5i9iXzUdqfVExbe-96">
          <mxGeometry x="0.0692" relative="1" as="geometry">
            <mxPoint as="offset" />
          </mxGeometry>
        </mxCell>
        <mxCell id="LfCRL5i9iXzUdqfVExbe-91" value="" style="html=1;points=[[0,0,0,0,5],[0,1,0,0,-5],[1,0,0,0,5],[1,1,0,0,-5]];perimeter=orthogonalPerimeter;outlineConnect=0;targetShapes=umlLifeline;portConstraint=eastwest;newEdgeStyle={&quot;curved&quot;:0,&quot;rounded&quot;:0};movable=0;resizable=0;rotatable=0;deletable=0;editable=0;locked=1;connectable=0;" vertex="1" parent="1">
          <mxGeometry x="537.5" y="400" width="10" height="60" as="geometry" />
        </mxCell>
        <mxCell id="LfCRL5i9iXzUdqfVExbe-94" value="&lt;font color=&quot;#3399ff&quot;&gt;&lt;b&gt;14、查询获取&lt;br&gt;当前用户资源树&lt;/b&gt;&lt;/font&gt;" style="html=1;align=left;spacingLeft=2;endArrow=block;rounded=0;edgeStyle=orthogonalEdgeStyle;curved=0;rounded=0;movable=0;resizable=0;rotatable=0;deletable=0;editable=0;locked=1;connectable=0;" edge="1" parent="1">
          <mxGeometry x="0.0014" relative="1" as="geometry">
            <mxPoint x="547.5" y="417.5" as="sourcePoint" />
            <Array as="points">
              <mxPoint x="570" y="417.5" />
              <mxPoint x="570" y="442.5" />
              <mxPoint x="550" y="442.5" />
            </Array>
            <mxPoint x="550" y="442.5" as="targetPoint" />
            <mxPoint as="offset" />
          </mxGeometry>
        </mxCell>
        <mxCell id="LfCRL5i9iXzUdqfVExbe-104" value="【场景2】访问&lt;br&gt;新业务中台web端&lt;br&gt;C4I页面" style="html=1;verticalAlign=bottom;endArrow=block;curved=0;rounded=0;entryX=0;entryY=0;entryDx=0;entryDy=5;movable=0;resizable=0;rotatable=0;deletable=0;editable=0;locked=1;connectable=0;" edge="1" parent="1" source="LfCRL5i9iXzUdqfVExbe-179">
          <mxGeometry relative="1" as="geometry">
            <mxPoint x="-400" y="558" as="sourcePoint" />
            <mxPoint x="-225" y="559" as="targetPoint" />
          </mxGeometry>
        </mxCell>
        <mxCell id="LfCRL5i9iXzUdqfVExbe-107" value="" style="edgeStyle=orthogonalEdgeStyle;rounded=0;orthogonalLoop=1;jettySize=auto;html=1;curved=0;movable=0;resizable=0;rotatable=0;deletable=0;editable=0;locked=1;connectable=0;" edge="1" parent="1">
          <mxGeometry relative="1" as="geometry">
            <mxPoint x="-215" y="566" as="sourcePoint" />
            <mxPoint x="155" y="566" as="targetPoint" />
          </mxGeometry>
        </mxCell>
        <mxCell id="LfCRL5i9iXzUdqfVExbe-108" value="1、携带请求请求入参和Token访问C4I接口" style="edgeLabel;html=1;align=center;verticalAlign=middle;resizable=0;points=[];movable=0;rotatable=0;deletable=0;editable=0;locked=1;connectable=0;" vertex="1" connectable="0" parent="LfCRL5i9iXzUdqfVExbe-107">
          <mxGeometry x="-0.2865" y="1" relative="1" as="geometry">
            <mxPoint x="43" y="-6" as="offset" />
          </mxGeometry>
        </mxCell>
        <mxCell id="LfCRL5i9iXzUdqfVExbe-128" value="" style="edgeStyle=orthogonalEdgeStyle;rounded=0;orthogonalLoop=1;jettySize=auto;html=1;curved=0;movable=0;resizable=0;rotatable=0;deletable=0;editable=0;locked=1;connectable=0;" edge="1" parent="1">
          <mxGeometry relative="1" as="geometry">
            <mxPoint x="-228" y="719.9999999999995" as="sourcePoint" />
            <mxPoint x="-403" y="720" as="targetPoint" />
            <Array as="points">
              <mxPoint x="-263" y="720" />
              <mxPoint x="-263" y="720" />
            </Array>
          </mxGeometry>
        </mxCell>
        <mxCell id="LfCRL5i9iXzUdqfVExbe-129" value="新业务中台web端&lt;br&gt;C4I页面呈现" style="edgeLabel;html=1;align=center;verticalAlign=middle;resizable=0;points=[];movable=0;rotatable=0;deletable=0;editable=0;locked=1;connectable=0;" vertex="1" connectable="0" parent="LfCRL5i9iXzUdqfVExbe-128">
          <mxGeometry x="0.3626" relative="1" as="geometry">
            <mxPoint x="24" as="offset" />
          </mxGeometry>
        </mxCell>
        <mxCell id="LfCRL5i9iXzUdqfVExbe-105" value="" style="html=1;points=[[0,0,0,0,5],[0,1,0,0,-5],[1,0,0,0,5],[1,1,0,0,-5]];perimeter=orthogonalPerimeter;outlineConnect=0;targetShapes=umlLifeline;portConstraint=eastwest;newEdgeStyle={&quot;curved&quot;:0,&quot;rounded&quot;:0};movable=0;resizable=0;rotatable=0;deletable=0;editable=0;locked=1;connectable=0;" vertex="1" parent="1">
          <mxGeometry x="-225" y="550" width="10" height="180" as="geometry" />
        </mxCell>
        <mxCell id="LfCRL5i9iXzUdqfVExbe-123" value="" style="edgeStyle=orthogonalEdgeStyle;rounded=0;orthogonalLoop=1;jettySize=auto;html=1;curved=0;movable=0;resizable=0;rotatable=0;deletable=0;editable=0;locked=1;connectable=0;" edge="1" parent="1" source="LfCRL5i9iXzUdqfVExbe-106">
          <mxGeometry relative="1" as="geometry">
            <mxPoint x="-215" y="650" as="targetPoint" />
          </mxGeometry>
        </mxCell>
        <mxCell id="LfCRL5i9iXzUdqfVExbe-124" value="8、返回给到前端" style="edgeLabel;html=1;align=center;verticalAlign=middle;resizable=0;points=[];movable=0;rotatable=0;deletable=0;editable=0;locked=1;connectable=0;" vertex="1" connectable="0" parent="LfCRL5i9iXzUdqfVExbe-123">
          <mxGeometry x="0.1155" y="-5" relative="1" as="geometry">
            <mxPoint x="11" y="5" as="offset" />
          </mxGeometry>
        </mxCell>
        <mxCell id="LfCRL5i9iXzUdqfVExbe-106" value="" style="html=1;points=[[0,0,0,0,5],[0,1,0,0,-5],[1,0,0,0,5],[1,1,0,0,-5]];perimeter=orthogonalPerimeter;outlineConnect=0;targetShapes=umlLifeline;portConstraint=eastwest;newEdgeStyle={&quot;curved&quot;:0,&quot;rounded&quot;:0};movable=0;resizable=0;rotatable=0;deletable=0;editable=0;locked=1;connectable=0;" vertex="1" parent="1">
          <mxGeometry x="155" y="550" width="10" height="200" as="geometry" />
        </mxCell>
        <mxCell id="LfCRL5i9iXzUdqfVExbe-109" value="" style="edgeStyle=orthogonalEdgeStyle;rounded=0;orthogonalLoop=1;jettySize=auto;html=1;curved=0;movable=0;resizable=0;rotatable=0;deletable=0;editable=0;locked=1;connectable=0;" edge="1" parent="1" target="LfCRL5i9iXzUdqfVExbe-115">
          <mxGeometry relative="1" as="geometry">
            <mxPoint x="165" y="569.4300000000001" as="sourcePoint" />
            <Array as="points">
              <mxPoint x="230" y="569.4300000000001" />
              <mxPoint x="230" y="569.4300000000001" />
            </Array>
          </mxGeometry>
        </mxCell>
        <mxCell id="LfCRL5i9iXzUdqfVExbe-110" value="2、进行Token鉴权" style="edgeLabel;html=1;align=center;verticalAlign=middle;resizable=0;points=[];movable=0;rotatable=0;deletable=0;editable=0;locked=1;connectable=0;" vertex="1" connectable="0" parent="LfCRL5i9iXzUdqfVExbe-109">
          <mxGeometry x="-0.2232" y="2" relative="1" as="geometry">
            <mxPoint as="offset" />
          </mxGeometry>
        </mxCell>
        <mxCell id="LfCRL5i9iXzUdqfVExbe-111" value="" style="edgeStyle=orthogonalEdgeStyle;rounded=0;orthogonalLoop=1;jettySize=auto;html=1;curved=0;movable=0;resizable=0;rotatable=0;deletable=0;editable=0;locked=1;connectable=0;" edge="1" parent="1" target="LfCRL5i9iXzUdqfVExbe-118">
          <mxGeometry relative="1" as="geometry">
            <mxPoint x="165" y="651.4300000000001" as="sourcePoint" />
            <mxPoint x="538" y="651.4300000000001" as="targetPoint" />
            <Array as="points">
              <mxPoint x="600" y="652" />
              <mxPoint x="600" y="652" />
            </Array>
          </mxGeometry>
        </mxCell>
        <mxCell id="LfCRL5i9iXzUdqfVExbe-112" value="6、转发请求" style="edgeLabel;html=1;align=center;verticalAlign=middle;resizable=0;points=[];movable=0;rotatable=0;deletable=0;editable=0;locked=1;connectable=0;" vertex="1" connectable="0" parent="LfCRL5i9iXzUdqfVExbe-111">
          <mxGeometry x="-0.0206" y="-2" relative="1" as="geometry">
            <mxPoint x="7" y="-1" as="offset" />
          </mxGeometry>
        </mxCell>
        <mxCell id="LfCRL5i9iXzUdqfVExbe-113" value="" style="edgeStyle=orthogonalEdgeStyle;rounded=0;orthogonalLoop=1;jettySize=auto;html=1;curved=0;movable=0;resizable=0;rotatable=0;deletable=0;editable=0;locked=1;connectable=0;" edge="1" parent="1">
          <mxGeometry relative="1" as="geometry">
            <mxPoint x="344.9999999999998" y="602.4300000000001" as="sourcePoint" />
            <mxPoint x="165" y="602.4300000000001" as="targetPoint" />
          </mxGeometry>
        </mxCell>
        <mxCell id="LfCRL5i9iXzUdqfVExbe-114" value="4、返回用户信息" style="edgeLabel;html=1;align=center;verticalAlign=middle;resizable=0;points=[];movable=0;rotatable=0;deletable=0;editable=0;locked=1;connectable=0;" vertex="1" connectable="0" parent="LfCRL5i9iXzUdqfVExbe-113">
          <mxGeometry x="0.1862" relative="1" as="geometry">
            <mxPoint as="offset" />
          </mxGeometry>
        </mxCell>
        <mxCell id="LfCRL5i9iXzUdqfVExbe-115" value="" style="html=1;points=[[0,0,0,0,5],[0,1,0,0,-5],[1,0,0,0,5],[1,1,0,0,-5]];perimeter=orthogonalPerimeter;outlineConnect=0;targetShapes=umlLifeline;portConstraint=eastwest;newEdgeStyle={&quot;curved&quot;:0,&quot;rounded&quot;:0};movable=0;resizable=0;rotatable=0;deletable=0;editable=0;locked=1;connectable=0;" vertex="1" parent="1">
          <mxGeometry x="345" y="559.4300000000001" width="10" height="60" as="geometry" />
        </mxCell>
        <mxCell id="LfCRL5i9iXzUdqfVExbe-116" value="&lt;font color=&quot;#3399ff&quot;&gt;3、Token鉴权&lt;/font&gt;" style="html=1;align=left;spacingLeft=2;endArrow=block;rounded=0;edgeStyle=orthogonalEdgeStyle;curved=0;rounded=0;movable=0;resizable=0;rotatable=0;deletable=0;editable=0;locked=1;connectable=0;fontStyle=1" edge="1" parent="1">
          <mxGeometry x="-0.0021" relative="1" as="geometry">
            <mxPoint x="355" y="574.4300000000001" as="sourcePoint" />
            <Array as="points">
              <mxPoint x="377.5" y="574.4300000000001" />
              <mxPoint x="377.5" y="599.4300000000001" />
              <mxPoint x="357.5" y="599.4300000000001" />
            </Array>
            <mxPoint x="357.5" y="599.4300000000001" as="targetPoint" />
            <mxPoint as="offset" />
          </mxGeometry>
        </mxCell>
        <mxCell id="LfCRL5i9iXzUdqfVExbe-117" value="5、将用户信息&lt;br&gt;注入到请求头中" style="html=1;align=left;spacingLeft=2;endArrow=block;rounded=0;edgeStyle=orthogonalEdgeStyle;curved=0;rounded=0;movable=0;resizable=0;rotatable=0;deletable=0;editable=0;locked=1;connectable=0;" edge="1" parent="1">
          <mxGeometry x="-0.0019" relative="1" as="geometry">
            <mxPoint x="165" y="619.4300000000001" as="sourcePoint" />
            <Array as="points">
              <mxPoint x="187.5" y="619.4300000000001" />
              <mxPoint x="187.5" y="644.4300000000001" />
              <mxPoint x="167.5" y="644.4300000000001" />
            </Array>
            <mxPoint x="167.5" y="644.4300000000001" as="targetPoint" />
            <mxPoint as="offset" />
          </mxGeometry>
        </mxCell>
        <mxCell id="LfCRL5i9iXzUdqfVExbe-120" value="" style="edgeStyle=orthogonalEdgeStyle;rounded=0;orthogonalLoop=1;jettySize=auto;html=1;curved=0;movable=0;resizable=0;rotatable=0;deletable=0;editable=0;locked=1;connectable=0;" edge="1" parent="1" source="LfCRL5i9iXzUdqfVExbe-118">
          <mxGeometry relative="1" as="geometry">
            <mxPoint x="165" y="670" as="targetPoint" />
          </mxGeometry>
        </mxCell>
        <mxCell id="LfCRL5i9iXzUdqfVExbe-121" value="7、返回查询结果" style="edgeLabel;html=1;align=center;verticalAlign=middle;resizable=0;points=[];movable=0;rotatable=0;deletable=0;editable=0;locked=1;connectable=0;" vertex="1" connectable="0" parent="LfCRL5i9iXzUdqfVExbe-120">
          <mxGeometry x="0.0469" y="-1" relative="1" as="geometry">
            <mxPoint as="offset" />
          </mxGeometry>
        </mxCell>
        <mxCell id="LfCRL5i9iXzUdqfVExbe-118" value="" style="html=1;points=[[0,0,0,0,5],[0,1,0,0,-5],[1,0,0,0,5],[1,1,0,0,-5]];perimeter=orthogonalPerimeter;outlineConnect=0;targetShapes=umlLifeline;portConstraint=eastwest;newEdgeStyle={&quot;curved&quot;:0,&quot;rounded&quot;:0};movable=0;resizable=0;rotatable=0;deletable=0;editable=0;locked=1;connectable=0;" vertex="1" parent="1">
          <mxGeometry x="730" y="630" width="10" height="80" as="geometry" />
        </mxCell>
        <mxCell id="LfCRL5i9iXzUdqfVExbe-125" value="9、前端渲染" style="html=1;align=left;spacingLeft=2;endArrow=block;rounded=0;edgeStyle=orthogonalEdgeStyle;curved=0;rounded=0;movable=0;resizable=0;rotatable=0;deletable=0;editable=0;locked=1;connectable=0;entryX=1;entryY=0.833;entryDx=0;entryDy=0;entryPerimeter=0;" edge="1" parent="1" target="LfCRL5i9iXzUdqfVExbe-105">
          <mxGeometry x="-0.0028" relative="1" as="geometry">
            <mxPoint x="-215" y="670" as="sourcePoint" />
            <Array as="points">
              <mxPoint x="-185" y="670" />
              <mxPoint x="-185" y="700" />
            </Array>
            <mxPoint x="-210" y="700" as="targetPoint" />
            <mxPoint as="offset" />
          </mxGeometry>
        </mxCell>
        <mxCell id="LfCRL5i9iXzUdqfVExbe-142" value="" style="edgeStyle=orthogonalEdgeStyle;rounded=0;orthogonalLoop=1;jettySize=auto;html=1;curved=0;movable=0;resizable=0;rotatable=0;deletable=0;editable=0;locked=1;connectable=0;" edge="1" parent="1">
          <mxGeometry relative="1" as="geometry">
            <mxPoint x="730" y="853" as="sourcePoint" />
            <mxPoint x="547.5" y="853" as="targetPoint" />
            <Array as="points">
              <mxPoint x="680" y="853" />
              <mxPoint x="680" y="853" />
            </Array>
          </mxGeometry>
        </mxCell>
        <mxCell id="LfCRL5i9iXzUdqfVExbe-143" value="2、使用Token进行鉴权" style="edgeLabel;html=1;align=center;verticalAlign=middle;resizable=0;points=[];movable=0;rotatable=0;deletable=0;editable=0;locked=1;connectable=0;" vertex="1" connectable="0" parent="LfCRL5i9iXzUdqfVExbe-142">
          <mxGeometry x="0.0447" relative="1" as="geometry">
            <mxPoint as="offset" />
          </mxGeometry>
        </mxCell>
        <mxCell id="LfCRL5i9iXzUdqfVExbe-165" value="" style="edgeStyle=orthogonalEdgeStyle;rounded=0;orthogonalLoop=1;jettySize=auto;html=1;curved=0;movable=0;resizable=0;rotatable=0;deletable=0;editable=0;locked=1;connectable=0;" edge="1" parent="1">
          <mxGeometry relative="1" as="geometry">
            <mxPoint x="730" y="972" as="sourcePoint" />
            <mxPoint x="-25" y="972" as="targetPoint" />
          </mxGeometry>
        </mxCell>
        <mxCell id="LfCRL5i9iXzUdqfVExbe-168" value="7、返回C4I-API请求结果" style="edgeLabel;html=1;align=center;verticalAlign=middle;resizable=0;points=[];movable=0;rotatable=0;deletable=0;editable=0;locked=1;connectable=0;" vertex="1" connectable="0" parent="LfCRL5i9iXzUdqfVExbe-165">
          <mxGeometry x="0.1765" y="-2" relative="1" as="geometry">
            <mxPoint as="offset" />
          </mxGeometry>
        </mxCell>
        <mxCell id="LfCRL5i9iXzUdqfVExbe-138" value="" style="html=1;points=[[0,0,0,0,5],[0,1,0,0,-5],[1,0,0,0,5],[1,1,0,0,-5]];perimeter=orthogonalPerimeter;outlineConnect=0;targetShapes=umlLifeline;portConstraint=eastwest;newEdgeStyle={&quot;curved&quot;:0,&quot;rounded&quot;:0};movable=0;resizable=0;rotatable=0;deletable=0;editable=0;locked=1;connectable=0;" vertex="1" parent="1">
          <mxGeometry x="730" y="820" width="10" height="160" as="geometry" />
        </mxCell>
        <mxCell id="LfCRL5i9iXzUdqfVExbe-146" value="" style="edgeStyle=orthogonalEdgeStyle;rounded=0;orthogonalLoop=1;jettySize=auto;html=1;curved=0;movable=0;resizable=0;rotatable=0;deletable=0;editable=0;locked=1;connectable=0;" edge="1" parent="1">
          <mxGeometry relative="1" as="geometry">
            <mxPoint x="547.5" y="897" as="sourcePoint" />
            <mxPoint x="730" y="897" as="targetPoint" />
          </mxGeometry>
        </mxCell>
        <mxCell id="LfCRL5i9iXzUdqfVExbe-147" value="4、返回用户信息" style="edgeLabel;html=1;align=center;verticalAlign=middle;resizable=0;points=[];movable=0;rotatable=0;deletable=0;editable=0;locked=1;connectable=0;" vertex="1" connectable="0" parent="LfCRL5i9iXzUdqfVExbe-146">
          <mxGeometry x="-0.3557" y="2" relative="1" as="geometry">
            <mxPoint x="24" as="offset" />
          </mxGeometry>
        </mxCell>
        <mxCell id="LfCRL5i9iXzUdqfVExbe-141" value="" style="html=1;points=[[0,0,0,0,5],[0,1,0,0,-5],[1,0,0,0,5],[1,1,0,0,-5]];perimeter=orthogonalPerimeter;outlineConnect=0;targetShapes=umlLifeline;portConstraint=eastwest;newEdgeStyle={&quot;curved&quot;:0,&quot;rounded&quot;:0};movable=0;resizable=0;rotatable=0;deletable=0;editable=0;locked=1;connectable=0;" vertex="1" parent="1">
          <mxGeometry x="537.5" y="840" width="10" height="70" as="geometry" />
        </mxCell>
        <mxCell id="LfCRL5i9iXzUdqfVExbe-144" value="3、Token鉴权" style="html=1;align=left;spacingLeft=2;endArrow=block;rounded=0;edgeStyle=orthogonalEdgeStyle;curved=0;rounded=0;movable=0;resizable=0;rotatable=0;deletable=0;editable=0;locked=1;connectable=0;" edge="1" parent="1">
          <mxGeometry x="0.125" y="-80" relative="1" as="geometry">
            <mxPoint x="537.5" y="862.4999999999995" as="sourcePoint" />
            <Array as="points">
              <mxPoint x="510" y="862.5" />
              <mxPoint x="510" y="887.5" />
            </Array>
            <mxPoint x="537.5" y="887.4999999999995" as="targetPoint" />
            <mxPoint as="offset" />
          </mxGeometry>
        </mxCell>
        <mxCell id="LfCRL5i9iXzUdqfVExbe-149" value="&lt;font color=&quot;#3399ff&quot;&gt;&lt;b&gt;5、将用户信息&lt;br&gt;存储到TheadLocal中&lt;/b&gt;&lt;/font&gt;" style="html=1;align=left;spacingLeft=2;endArrow=block;rounded=0;edgeStyle=orthogonalEdgeStyle;curved=0;rounded=0;movable=0;resizable=0;rotatable=0;deletable=0;editable=0;locked=1;connectable=0;" edge="1" parent="1">
          <mxGeometry x="-0.0021" relative="1" as="geometry">
            <mxPoint x="740" y="900.02" as="sourcePoint" />
            <Array as="points">
              <mxPoint x="762.5" y="900.02" />
              <mxPoint x="762.5" y="925.02" />
              <mxPoint x="742.5" y="925.02" />
            </Array>
            <mxPoint x="742.5" y="925.02" as="targetPoint" />
            <mxPoint as="offset" />
          </mxGeometry>
        </mxCell>
        <mxCell id="LfCRL5i9iXzUdqfVExbe-160" value="" style="edgeStyle=orthogonalEdgeStyle;rounded=0;orthogonalLoop=1;jettySize=auto;html=1;curved=0;movable=0;resizable=0;rotatable=0;deletable=0;editable=0;locked=1;connectable=0;" edge="1" parent="1">
          <mxGeometry relative="1" as="geometry">
            <mxPoint x="-25" y="834.0344827586209" as="sourcePoint" />
            <mxPoint x="730" y="834" as="targetPoint" />
          </mxGeometry>
        </mxCell>
        <mxCell id="LfCRL5i9iXzUdqfVExbe-161" value="1、触发C4I-API请求（携带请求Token）" style="edgeLabel;html=1;align=center;verticalAlign=middle;resizable=0;points=[];movable=0;rotatable=0;deletable=0;editable=0;locked=1;connectable=0;" vertex="1" connectable="0" parent="LfCRL5i9iXzUdqfVExbe-160">
          <mxGeometry x="0.1054" y="4" relative="1" as="geometry">
            <mxPoint x="-42" y="4" as="offset" />
          </mxGeometry>
        </mxCell>
        <mxCell id="LfCRL5i9iXzUdqfVExbe-174" value="" style="edgeStyle=orthogonalEdgeStyle;rounded=0;orthogonalLoop=1;jettySize=auto;html=1;curved=0;movable=0;resizable=0;rotatable=0;deletable=0;editable=0;locked=1;connectable=0;" edge="1" parent="1" target="LfCRL5i9iXzUdqfVExbe-180">
          <mxGeometry relative="1" as="geometry">
            <mxPoint x="-35" y="1036" as="sourcePoint" />
            <mxPoint x="-380" y="1036" as="targetPoint" />
            <Array as="points">
              <mxPoint x="-220" y="1037" />
            </Array>
          </mxGeometry>
        </mxCell>
        <mxCell id="LfCRL5i9iXzUdqfVExbe-175" value="C4Iweb端页面呈现" style="edgeLabel;html=1;align=center;verticalAlign=middle;resizable=0;points=[];movable=0;rotatable=0;deletable=0;editable=0;locked=1;connectable=0;" vertex="1" connectable="0" parent="LfCRL5i9iXzUdqfVExbe-174">
          <mxGeometry x="0.7963" relative="1" as="geometry">
            <mxPoint x="57" y="-6" as="offset" />
          </mxGeometry>
        </mxCell>
        <mxCell id="LfCRL5i9iXzUdqfVExbe-156" value="" style="html=1;points=[[0,0,0,0,5],[0,1,0,0,-5],[1,0,0,0,5],[1,1,0,0,-5]];perimeter=orthogonalPerimeter;outlineConnect=0;targetShapes=umlLifeline;portConstraint=eastwest;newEdgeStyle={&quot;curved&quot;:0,&quot;rounded&quot;:0};movable=0;resizable=0;rotatable=0;deletable=0;editable=0;locked=1;connectable=0;" vertex="1" parent="1">
          <mxGeometry x="-35" y="810" width="10" height="230" as="geometry" />
        </mxCell>
        <mxCell id="LfCRL5i9iXzUdqfVExbe-163" value="&lt;b style=&quot;&quot;&gt;6、进行数据请求&lt;/b&gt;" style="html=1;align=left;spacingLeft=2;endArrow=block;rounded=0;edgeStyle=orthogonalEdgeStyle;curved=0;rounded=0;movable=0;resizable=0;rotatable=0;deletable=0;editable=0;locked=1;connectable=0;" edge="1" parent="1">
          <mxGeometry x="-0.0021" relative="1" as="geometry">
            <mxPoint x="740" y="940.02" as="sourcePoint" />
            <Array as="points">
              <mxPoint x="762.5" y="940.02" />
              <mxPoint x="762.5" y="965.02" />
              <mxPoint x="742.5" y="965.02" />
            </Array>
            <mxPoint x="742.5" y="965.02" as="targetPoint" />
            <mxPoint as="offset" />
          </mxGeometry>
        </mxCell>
        <mxCell id="LfCRL5i9iXzUdqfVExbe-172" value="8、前端渲染" style="html=1;align=left;spacingLeft=2;endArrow=block;rounded=0;edgeStyle=orthogonalEdgeStyle;curved=0;rounded=0;movable=0;resizable=0;rotatable=0;deletable=0;editable=0;locked=1;connectable=0;entryX=1;entryY=0.833;entryDx=0;entryDy=0;entryPerimeter=0;" edge="1" parent="1">
          <mxGeometry x="-0.0028" relative="1" as="geometry">
            <mxPoint x="-25" y="1000" as="sourcePoint" />
            <Array as="points">
              <mxPoint x="5" y="1000" />
              <mxPoint x="5" y="1030" />
            </Array>
            <mxPoint x="-25" y="1030" as="targetPoint" />
            <mxPoint as="offset" />
          </mxGeometry>
        </mxCell>
        <mxCell id="LfCRL5i9iXzUdqfVExbe-177" value="" style="html=1;points=[[0,0,0,0,5],[0,1,0,0,-5],[1,0,0,0,5],[1,1,0,0,-5]];perimeter=orthogonalPerimeter;outlineConnect=0;targetShapes=umlLifeline;portConstraint=eastwest;newEdgeStyle={&quot;curved&quot;:0,&quot;rounded&quot;:0};movable=0;resizable=0;rotatable=0;deletable=0;editable=0;locked=1;connectable=0;" vertex="1" parent="1">
          <mxGeometry x="-415" y="150" width="10" height="350" as="geometry" />
        </mxCell>
        <mxCell id="LfCRL5i9iXzUdqfVExbe-179" value="" style="html=1;points=[[0,0,0,0,5],[0,1,0,0,-5],[1,0,0,0,5],[1,1,0,0,-5]];perimeter=orthogonalPerimeter;outlineConnect=0;targetShapes=umlLifeline;portConstraint=eastwest;newEdgeStyle={&quot;curved&quot;:0,&quot;rounded&quot;:0};movable=0;resizable=0;rotatable=0;deletable=0;editable=0;locked=1;connectable=0;" vertex="1" parent="1">
          <mxGeometry x="-415" y="540" width="10" height="200" as="geometry" />
        </mxCell>
        <mxCell id="LfCRL5i9iXzUdqfVExbe-236" value="" style="edgeStyle=orthogonalEdgeStyle;rounded=0;orthogonalLoop=1;jettySize=auto;html=1;curved=0;movable=0;resizable=0;rotatable=0;deletable=0;editable=0;locked=1;connectable=0;" edge="1" parent="1">
          <mxGeometry relative="1" as="geometry">
            <mxPoint x="-405" y="820.0044827586207" as="sourcePoint" />
            <mxPoint x="-35" y="820.0044827586207" as="targetPoint" />
            <Array as="points">
              <mxPoint x="-250" y="819.97" />
              <mxPoint x="-250" y="819.97" />
            </Array>
          </mxGeometry>
        </mxCell>
        <mxCell id="LfCRL5i9iXzUdqfVExbe-237" value="【场景3】用户跳转&lt;br&gt;C4Iweb端任意页面" style="edgeLabel;html=1;align=center;verticalAlign=middle;resizable=0;points=[];movable=0;rotatable=0;deletable=0;editable=0;locked=1;connectable=0;" vertex="1" connectable="0" parent="LfCRL5i9iXzUdqfVExbe-236">
          <mxGeometry x="0.1007" y="1" relative="1" as="geometry">
            <mxPoint x="-108" y="1" as="offset" />
          </mxGeometry>
        </mxCell>
        <mxCell id="LfCRL5i9iXzUdqfVExbe-180" value="" style="html=1;points=[[0,0,0,0,5],[0,1,0,0,-5],[1,0,0,0,5],[1,1,0,0,-5]];perimeter=orthogonalPerimeter;outlineConnect=0;targetShapes=umlLifeline;portConstraint=eastwest;newEdgeStyle={&quot;curved&quot;:0,&quot;rounded&quot;:0};movable=0;resizable=0;rotatable=0;deletable=0;editable=0;locked=1;connectable=0;" vertex="1" parent="1">
          <mxGeometry x="-415" y="810" width="10" height="250" as="geometry" />
        </mxCell>
        <mxCell id="LfCRL5i9iXzUdqfVExbe-206" value="" style="edgeStyle=orthogonalEdgeStyle;rounded=0;orthogonalLoop=1;jettySize=auto;html=1;curved=0;movable=0;resizable=0;rotatable=0;deletable=0;editable=0;locked=1;connectable=0;" edge="1" parent="1">
          <mxGeometry relative="1" as="geometry">
            <mxPoint x="-405" y="1160" as="sourcePoint" />
            <mxPoint x="-35" y="1160" as="targetPoint" />
          </mxGeometry>
        </mxCell>
        <mxCell id="LfCRL5i9iXzUdqfVExbe-207" value="【场景4】用户在C4Iweb端进行登录" style="edgeLabel;html=1;align=center;verticalAlign=middle;resizable=0;points=[];movable=0;rotatable=0;deletable=0;editable=0;locked=1;connectable=0;" vertex="1" connectable="0" parent="LfCRL5i9iXzUdqfVExbe-206">
          <mxGeometry x="-0.2395" y="4" relative="1" as="geometry">
            <mxPoint as="offset" />
          </mxGeometry>
        </mxCell>
        <mxCell id="LfCRL5i9iXzUdqfVExbe-204" value="" style="html=1;points=[[0,0,0,0,5],[0,1,0,0,-5],[1,0,0,0,5],[1,1,0,0,-5]];perimeter=orthogonalPerimeter;outlineConnect=0;targetShapes=umlLifeline;portConstraint=eastwest;newEdgeStyle={&quot;curved&quot;:0,&quot;rounded&quot;:0};movable=0;resizable=0;rotatable=0;deletable=0;editable=0;locked=1;connectable=0;" vertex="1" parent="1">
          <mxGeometry x="-415" y="1150" width="10" height="340" as="geometry" />
        </mxCell>
        <mxCell id="LfCRL5i9iXzUdqfVExbe-209" value="" style="edgeStyle=orthogonalEdgeStyle;rounded=0;orthogonalLoop=1;jettySize=auto;html=1;curved=0;movable=0;resizable=0;rotatable=0;deletable=0;editable=0;locked=1;connectable=0;" edge="1" parent="1">
          <mxGeometry relative="1" as="geometry">
            <mxPoint x="-25" y="1169" as="sourcePoint" />
            <mxPoint x="730" y="1169" as="targetPoint" />
          </mxGeometry>
        </mxCell>
        <mxCell id="LfCRL5i9iXzUdqfVExbe-210" value="2、传入账号、密码登录" style="edgeLabel;html=1;align=center;verticalAlign=middle;resizable=0;points=[];movable=0;rotatable=0;deletable=0;editable=0;locked=1;connectable=0;" vertex="1" connectable="0" parent="LfCRL5i9iXzUdqfVExbe-209">
          <mxGeometry x="-0.1538" y="3" relative="1" as="geometry">
            <mxPoint as="offset" />
          </mxGeometry>
        </mxCell>
        <mxCell id="LfCRL5i9iXzUdqfVExbe-205" value="" style="html=1;points=[[0,0,0,0,5],[0,1,0,0,-5],[1,0,0,0,5],[1,1,0,0,-5]];perimeter=orthogonalPerimeter;outlineConnect=0;targetShapes=umlLifeline;portConstraint=eastwest;newEdgeStyle={&quot;curved&quot;:0,&quot;rounded&quot;:0};movable=0;resizable=0;rotatable=0;deletable=0;editable=0;locked=1;connectable=0;" vertex="1" parent="1">
          <mxGeometry x="-35" y="1150" width="10" height="160" as="geometry" />
        </mxCell>
        <mxCell id="LfCRL5i9iXzUdqfVExbe-212" value="" style="edgeStyle=orthogonalEdgeStyle;rounded=0;orthogonalLoop=1;jettySize=auto;html=1;curved=0;movable=0;resizable=0;rotatable=0;deletable=0;editable=0;locked=1;connectable=0;" edge="1" parent="1">
          <mxGeometry relative="1" as="geometry">
            <mxPoint x="730" y="1196" as="sourcePoint" />
            <mxPoint x="547.5" y="1196" as="targetPoint" />
          </mxGeometry>
        </mxCell>
        <mxCell id="LfCRL5i9iXzUdqfVExbe-220" value="" style="edgeStyle=orthogonalEdgeStyle;rounded=0;orthogonalLoop=1;jettySize=auto;html=1;curved=0;movable=0;resizable=0;rotatable=0;deletable=0;editable=0;locked=1;connectable=0;" edge="1" parent="1">
          <mxGeometry relative="1" as="geometry">
            <mxPoint x="730" y="1263.0285714285715" as="sourcePoint" />
            <mxPoint x="-25" y="1263" as="targetPoint" />
          </mxGeometry>
        </mxCell>
        <mxCell id="LfCRL5i9iXzUdqfVExbe-221" value="5、返回Token+用户信息给到前端" style="edgeLabel;html=1;align=center;verticalAlign=middle;resizable=0;points=[];movable=0;rotatable=0;deletable=0;editable=0;locked=1;connectable=0;" vertex="1" connectable="0" parent="LfCRL5i9iXzUdqfVExbe-220">
          <mxGeometry x="0.1394" y="-2" relative="1" as="geometry">
            <mxPoint as="offset" />
          </mxGeometry>
        </mxCell>
        <mxCell id="LfCRL5i9iXzUdqfVExbe-208" value="" style="html=1;points=[[0,0,0,0,5],[0,1,0,0,-5],[1,0,0,0,5],[1,1,0,0,-5]];perimeter=orthogonalPerimeter;outlineConnect=0;targetShapes=umlLifeline;portConstraint=eastwest;newEdgeStyle={&quot;curved&quot;:0,&quot;rounded&quot;:0};movable=0;resizable=0;rotatable=0;deletable=0;editable=0;locked=1;connectable=0;" vertex="1" parent="1">
          <mxGeometry x="730" y="1150" width="10" height="130" as="geometry" />
        </mxCell>
        <mxCell id="LfCRL5i9iXzUdqfVExbe-217" value="" style="edgeStyle=orthogonalEdgeStyle;rounded=0;orthogonalLoop=1;jettySize=auto;html=1;curved=0;movable=0;resizable=0;rotatable=0;deletable=0;editable=0;locked=1;connectable=0;" edge="1" parent="1">
          <mxGeometry relative="1" as="geometry">
            <mxPoint x="547.5" y="1234.9999999999998" as="sourcePoint" />
            <mxPoint x="730" y="1235" as="targetPoint" />
          </mxGeometry>
        </mxCell>
        <mxCell id="LfCRL5i9iXzUdqfVExbe-218" value="4、返回Token" style="edgeLabel;html=1;align=center;verticalAlign=middle;resizable=0;points=[];movable=0;rotatable=0;deletable=0;editable=0;locked=1;connectable=0;" vertex="1" connectable="0" parent="LfCRL5i9iXzUdqfVExbe-217">
          <mxGeometry x="-0.1217" relative="1" as="geometry">
            <mxPoint as="offset" />
          </mxGeometry>
        </mxCell>
        <mxCell id="LfCRL5i9iXzUdqfVExbe-211" value="" style="html=1;points=[[0,0,0,0,5],[0,1,0,0,-5],[1,0,0,0,5],[1,1,0,0,-5]];perimeter=orthogonalPerimeter;outlineConnect=0;targetShapes=umlLifeline;portConstraint=eastwest;newEdgeStyle={&quot;curved&quot;:0,&quot;rounded&quot;:0};movable=0;resizable=0;rotatable=0;deletable=0;editable=0;locked=1;connectable=0;" vertex="1" parent="1">
          <mxGeometry x="537.5" y="1184" width="10" height="60" as="geometry" />
        </mxCell>
        <mxCell id="LfCRL5i9iXzUdqfVExbe-214" value="3、登录校验" style="html=1;align=left;spacingLeft=2;endArrow=block;rounded=0;edgeStyle=orthogonalEdgeStyle;curved=0;rounded=0;movable=0;resizable=0;rotatable=0;deletable=0;editable=0;locked=1;connectable=0;" edge="1" parent="1">
          <mxGeometry x="0.125" y="-80" relative="1" as="geometry">
            <mxPoint x="537.5" y="1201.4999999999995" as="sourcePoint" />
            <Array as="points">
              <mxPoint x="510" y="1201.5" />
              <mxPoint x="510" y="1226.5" />
            </Array>
            <mxPoint x="537.5" y="1226.4999999999995" as="targetPoint" />
            <mxPoint as="offset" />
          </mxGeometry>
        </mxCell>
        <mxCell id="LfCRL5i9iXzUdqfVExbe-222" value="8、前端调用C4I-API接口&lt;br&gt;获取用户目录信息&lt;br&gt;此处参考【场景3】不重复赘述" style="html=1;align=left;spacingLeft=2;endArrow=block;rounded=0;edgeStyle=orthogonalEdgeStyle;curved=0;rounded=0;movable=0;resizable=0;rotatable=0;deletable=0;editable=0;locked=1;connectable=0;entryX=1;entryY=0.833;entryDx=0;entryDy=0;entryPerimeter=0;" edge="1" parent="1">
          <mxGeometry x="0.0032" relative="1" as="geometry">
            <mxPoint x="-25" y="1370" as="sourcePoint" />
            <Array as="points">
              <mxPoint x="5" y="1370" />
              <mxPoint x="5" y="1400" />
            </Array>
            <mxPoint x="-25" y="1400" as="targetPoint" />
            <mxPoint as="offset" />
          </mxGeometry>
        </mxCell>
        <mxCell id="LfCRL5i9iXzUdqfVExbe-225" value="" style="endArrow=classic;html=1;rounded=0;movable=0;resizable=0;rotatable=0;deletable=0;editable=0;locked=1;connectable=0;" edge="1" parent="1" source="LfCRL5i9iXzUdqfVExbe-224">
          <mxGeometry width="50" height="50" relative="1" as="geometry">
            <mxPoint x="-130" y="1360" as="sourcePoint" />
            <mxPoint x="-30" y="1410" as="targetPoint" />
          </mxGeometry>
        </mxCell>
        <mxCell id="LfCRL5i9iXzUdqfVExbe-226" value="6、前端将Token&lt;br&gt;存储到Cookies中" style="html=1;align=left;spacingLeft=2;endArrow=block;rounded=0;edgeStyle=orthogonalEdgeStyle;curved=0;rounded=0;movable=0;resizable=0;rotatable=0;deletable=0;editable=0;locked=1;connectable=0;entryX=1;entryY=0.833;entryDx=0;entryDy=0;entryPerimeter=0;" edge="1" parent="1">
          <mxGeometry x="0.0032" relative="1" as="geometry">
            <mxPoint x="-25" y="1270" as="sourcePoint" />
            <Array as="points">
              <mxPoint x="5" y="1270" />
              <mxPoint x="5" y="1300" />
            </Array>
            <mxPoint x="-25" y="1300" as="targetPoint" />
            <mxPoint as="offset" />
          </mxGeometry>
        </mxCell>
        <mxCell id="LfCRL5i9iXzUdqfVExbe-228" value="" style="endArrow=classic;html=1;rounded=0;movable=0;resizable=0;rotatable=0;deletable=0;editable=0;locked=1;connectable=0;" edge="1" parent="1" source="LfCRL5i9iXzUdqfVExbe-205" target="LfCRL5i9iXzUdqfVExbe-224">
          <mxGeometry width="50" height="50" relative="1" as="geometry">
            <mxPoint x="-30" y="1310" as="sourcePoint" />
            <mxPoint x="-30" y="1410" as="targetPoint" />
          </mxGeometry>
        </mxCell>
        <mxCell id="LfCRL5i9iXzUdqfVExbe-229" value="7、登录成功&lt;br&gt;跳转web首页" style="edgeLabel;html=1;align=center;verticalAlign=middle;resizable=0;points=[];movable=0;rotatable=0;deletable=0;editable=0;locked=1;connectable=0;" vertex="1" connectable="0" parent="LfCRL5i9iXzUdqfVExbe-228">
          <mxGeometry x="-0.0142" y="1" relative="1" as="geometry">
            <mxPoint as="offset" />
          </mxGeometry>
        </mxCell>
        <mxCell id="LfCRL5i9iXzUdqfVExbe-232" value="" style="edgeStyle=orthogonalEdgeStyle;rounded=0;orthogonalLoop=1;jettySize=auto;html=1;curved=0;movable=0;resizable=0;rotatable=0;deletable=0;editable=0;locked=1;connectable=0;" edge="1" parent="1" source="LfCRL5i9iXzUdqfVExbe-224">
          <mxGeometry relative="1" as="geometry">
            <mxPoint x="-405" y="1460" as="targetPoint" />
            <Array as="points">
              <mxPoint x="-310" y="1460" />
              <mxPoint x="-310" y="1460" />
            </Array>
          </mxGeometry>
        </mxCell>
        <mxCell id="LfCRL5i9iXzUdqfVExbe-224" value="" style="html=1;points=[[0,0,0,0,5],[0,1,0,0,-5],[1,0,0,0,5],[1,1,0,0,-5]];perimeter=orthogonalPerimeter;outlineConnect=0;targetShapes=umlLifeline;portConstraint=eastwest;newEdgeStyle={&quot;curved&quot;:0,&quot;rounded&quot;:0};movable=0;resizable=0;rotatable=0;deletable=0;editable=0;locked=1;connectable=0;" vertex="1" parent="1">
          <mxGeometry x="-35" y="1360" width="10" height="110" as="geometry" />
        </mxCell>
        <mxCell id="LfCRL5i9iXzUdqfVExbe-230" value="9、前端页面渲染" style="html=1;align=left;spacingLeft=2;endArrow=block;rounded=0;edgeStyle=orthogonalEdgeStyle;curved=0;rounded=0;movable=0;resizable=0;rotatable=0;deletable=0;editable=0;locked=1;connectable=0;entryX=1;entryY=0.833;entryDx=0;entryDy=0;entryPerimeter=0;" edge="1" parent="1">
          <mxGeometry x="0.0032" relative="1" as="geometry">
            <mxPoint x="-25" y="1420" as="sourcePoint" />
            <Array as="points">
              <mxPoint x="5" y="1420" />
              <mxPoint x="5" y="1450" />
            </Array>
            <mxPoint x="-25" y="1450" as="targetPoint" />
            <mxPoint as="offset" />
          </mxGeometry>
        </mxCell>
        <mxCell id="LfCRL5i9iXzUdqfVExbe-235" value="" style="html=1;points=[[0,0,0,0,5],[0,1,0,0,-5],[1,0,0,0,5],[1,1,0,0,-5]];perimeter=orthogonalPerimeter;outlineConnect=0;targetShapes=umlLifeline;portConstraint=eastwest;newEdgeStyle={&quot;curved&quot;:0,&quot;rounded&quot;:0};movable=0;resizable=0;rotatable=0;deletable=0;editable=0;locked=1;connectable=0;" vertex="1" parent="1">
          <mxGeometry x="-35" y="810" width="10" height="250" as="geometry" />
        </mxCell>
        <mxCell id="LfCRL5i9iXzUdqfVExbe-238" value="" style="group;movable=0;resizable=0;rotatable=0;deletable=0;editable=0;locked=1;connectable=0;" vertex="1" connectable="0" parent="1">
          <mxGeometry x="-460" y="55" width="1245" height="1485" as="geometry" />
        </mxCell>
        <mxCell id="LfCRL5i9iXzUdqfVExbe-3" value="C4I-Service" style="shape=umlLifeline;perimeter=lifelinePerimeter;whiteSpace=wrap;html=1;container=1;dropTarget=0;collapsible=0;recursiveResize=0;outlineConnect=0;portConstraint=eastwest;newEdgeStyle={&quot;curved&quot;:0,&quot;rounded&quot;:0};movable=0;resizable=0;rotatable=0;deletable=0;editable=0;locked=1;connectable=0;" vertex="1" parent="LfCRL5i9iXzUdqfVExbe-238">
          <mxGeometry x="1145" width="100" height="1485" as="geometry" />
        </mxCell>
        <mxCell id="LfCRL5i9iXzUdqfVExbe-1" value="Gateway网关" style="shape=umlLifeline;perimeter=lifelinePerimeter;whiteSpace=wrap;html=1;container=1;dropTarget=0;collapsible=0;recursiveResize=0;outlineConnect=0;portConstraint=eastwest;newEdgeStyle={&quot;curved&quot;:0,&quot;rounded&quot;:0};movable=0;resizable=0;rotatable=0;deletable=0;editable=0;locked=1;connectable=0;" vertex="1" parent="LfCRL5i9iXzUdqfVExbe-238">
          <mxGeometry x="570" width="100" height="1470.9905660377356" as="geometry" />
        </mxCell>
        <mxCell id="LfCRL5i9iXzUdqfVExbe-2" value="权限中心" style="shape=umlLifeline;perimeter=lifelinePerimeter;whiteSpace=wrap;html=1;container=1;dropTarget=0;collapsible=0;recursiveResize=0;outlineConnect=0;portConstraint=eastwest;newEdgeStyle={&quot;curved&quot;:0,&quot;rounded&quot;:0};movable=0;resizable=0;rotatable=0;deletable=0;editable=0;locked=1;connectable=0;" vertex="1" parent="LfCRL5i9iXzUdqfVExbe-238">
          <mxGeometry x="950" width="105" height="1470.9905660377356" as="geometry" />
        </mxCell>
        <mxCell id="LfCRL5i9iXzUdqfVExbe-17" value="新业务中台web端" style="shape=umlLifeline;perimeter=lifelinePerimeter;whiteSpace=wrap;html=1;container=1;dropTarget=0;collapsible=0;recursiveResize=0;outlineConnect=0;portConstraint=eastwest;newEdgeStyle={&quot;curved&quot;:0,&quot;rounded&quot;:0};movable=0;resizable=0;rotatable=0;deletable=0;editable=0;locked=1;connectable=0;" vertex="1" parent="LfCRL5i9iXzUdqfVExbe-238">
          <mxGeometry x="190" width="100" height="1470.9905660377356" as="geometry" />
        </mxCell>
        <mxCell id="LfCRL5i9iXzUdqfVExbe-18" value="C4Iweb端" style="shape=umlLifeline;perimeter=lifelinePerimeter;whiteSpace=wrap;html=1;container=1;dropTarget=0;collapsible=0;recursiveResize=0;outlineConnect=0;portConstraint=eastwest;newEdgeStyle={&quot;curved&quot;:0,&quot;rounded&quot;:0};movable=0;resizable=0;rotatable=0;deletable=0;editable=0;locked=1;connectable=0;" vertex="1" parent="LfCRL5i9iXzUdqfVExbe-238">
          <mxGeometry x="380" width="100" height="1463.1661481332794" as="geometry" />
        </mxCell>
        <mxCell id="LfCRL5i9iXzUdqfVExbe-61" value="用户登录服务" style="shape=umlLifeline;perimeter=lifelinePerimeter;whiteSpace=wrap;html=1;container=1;dropTarget=0;collapsible=0;recursiveResize=0;outlineConnect=0;portConstraint=eastwest;newEdgeStyle={&quot;curved&quot;:0,&quot;rounded&quot;:0};movable=0;resizable=0;rotatable=0;deletable=0;editable=0;locked=1;connectable=0;" vertex="1" parent="LfCRL5i9iXzUdqfVExbe-238">
          <mxGeometry x="760" width="100" height="1470.9905660377356" as="geometry" />
        </mxCell>
        <mxCell id="LfCRL5i9iXzUdqfVExbe-176" value="用户A" style="shape=umlLifeline;perimeter=lifelinePerimeter;whiteSpace=wrap;html=1;container=1;dropTarget=0;collapsible=0;recursiveResize=0;outlineConnect=0;portConstraint=eastwest;newEdgeStyle={&quot;curved&quot;:0,&quot;rounded&quot;:0};movable=0;resizable=0;rotatable=0;deletable=0;editable=0;locked=1;connectable=0;" vertex="1" parent="LfCRL5i9iXzUdqfVExbe-238">
          <mxGeometry width="100" height="1470.9905660377356" as="geometry" />
        </mxCell>
      </root>
    </mxGraphModel>
  </diagram>
</mxfile>
